<?xml version="1.0" encoding="UTF-8"?>
<svg id="Ebene_2" data-name="Ebene 2" xmlns="http://www.w3.org/2000/svg" viewBox="0 0 141.73 43.02">
  <defs>
    <style>
      .cls-1 {
        fill: #001a3b;
      }

      .cls-2 {
        fill: none;
      }
    </style>
  </defs>
  <g id="Ebene_1-2" data-name="Ebene 1">
    <path class="cls-1" d="m141.73,0h-27.79c-1.4,0-2.66.3-3.78.9-1.11.6-1.98,1.43-2.6,2.48-.62,1.05-.93,2.23-.93,3.54s.31,2.48.93,3.54c.62,1.05,1.49,1.88,2.6,2.48,1.11.6,2.37.9,3.78.9h18.52c.86,0,1.57.27,2.12.81s.83,1.22.83,2.05-.28,1.51-.83,2.05c-.55.54-1.26.81-2.12.81h-26.31l-2.21,4.07h28.67c1.4,0,2.66-.3,3.78-.9,1.11-.6,1.98-1.43,2.61-2.48.62-1.05.93-2.23.93-3.54s-.31-2.48-.93-3.54c-.62-1.05-1.49-1.88-2.61-2.48-1.11-.6-2.37-.9-3.78-.9h-18.52c-.86,0-1.57-.27-2.12-.81-.55-.54-.83-1.22-.83-2.05s.28-1.51.83-2.05c.55-.54,1.26-.81,2.12-.81h25.43l2.21-4.07Z"/>
    <rect class="cls-2" x="0" y="0" width="141.73" height="41.49"/>
    <polygon class="cls-1" points="95.52 0 84.53 19.79 73.54 0 68.5 0 57.51 19.79 46.53 0 41.61 0 54.73 23.64 55.38 23.64 59.65 23.64 60.3 23.64 71.02 4.32 81.74 23.64 82.4 23.64 86.66 23.64 87.32 23.64 100.44 0 95.52 0"/>
    <path class="cls-1" d="m34.47,3.39c-.62-1.05-1.49-1.88-2.61-2.48C30.75.3,29.5,0,28.09,0H0v4.06h27.94c.86,0,1.57.27,2.12.81s.83,1.22.83,2.05-.28,1.51-.83,2.05c-.55.54-1.26.81-2.12.81H0v13.85h4.06v-9.78h18.36l5.43,9.78h4.92l-5.43-9.78h.74c1.41,0,2.66-.3,3.78-.9,1.11-.6,1.98-1.43,2.61-2.48.62-1.05.93-2.23.93-3.54s-.31-2.48-.93-3.54"/>
    <g>
      <path class="cls-1" d="m16.69,41.49v-.66h.68v-3.7h-.68v-.66h2.19v.66h-.69v3.7h.69v.66h-2.19Z"/>
      <path class="cls-1" d="m23.27,41.84c0,.39-.15.68-.45.88-.3.2-.78.29-1.45.29-.31,0-.57-.02-.78-.06-.21-.04-.39-.1-.53-.18-.14-.08-.24-.17-.3-.28s-.09-.24-.09-.38c0-.21.06-.37.17-.48s.27-.19.47-.24v-.08c-.28-.09-.42-.28-.42-.58,0-.19.06-.34.19-.44.13-.1.29-.18.47-.22v-.03c-.22-.11-.39-.25-.51-.44s-.18-.41-.18-.67c0-.38.13-.69.39-.93s.63-.35,1.11-.35c.26,0,.49.04.68.12v-.1c0-.17.04-.3.12-.39.08-.09.2-.14.37-.14h.58v.63h-.76v.15c.17.11.3.25.39.43.09.18.14.37.14.59,0,.38-.13.69-.39.92-.26.23-.63.35-1.11.35-.18,0-.35-.02-.49-.06-.1.03-.18.08-.25.14-.07.06-.11.14-.11.23,0,.1.05.17.14.22.09.04.22.07.39.07h.92c.46,0,.79.09,1,.28.21.19.31.44.31.76Zm-.73.09c0-.13-.05-.23-.15-.31-.1-.08-.28-.12-.54-.12h-1.27c-.17.1-.26.24-.26.43,0,.15.06.28.18.37.12.09.33.14.62.14h.49c.61,0,.91-.17.91-.52Zm-1.17-2.29c.23,0,.41-.05.54-.15.13-.1.19-.26.19-.48v-.14c0-.22-.06-.38-.19-.48-.13-.1-.31-.16-.54-.16s-.41.05-.54.16c-.13.1-.19.26-.19.48v.14c0,.22.06.38.19.48.13.1.31.15.54.15Z"/>
      <path class="cls-1" d="m23.99,41.49v-3.74h.78v.62h.04c.08-.2.21-.37.37-.5.17-.13.39-.2.68-.2.38,0,.68.13.9.38.21.25.32.61.32,1.08v2.38h-.78v-2.28c0-.58-.24-.88-.71-.88-.1,0-.2.01-.3.04-.1.03-.19.07-.26.12-.08.05-.14.12-.18.2-.05.08-.07.18-.07.29v2.51h-.78Z"/>
      <path class="cls-1" d="m28.71,37.08c-.16,0-.28-.04-.36-.11-.07-.08-.11-.18-.11-.3v-.12c0-.12.04-.22.11-.29.07-.08.19-.12.36-.12s.28.04.35.12c.07.08.11.17.11.29v.12c0,.12-.04.22-.11.3-.07.08-.19.11-.35.11Zm-.4.67h.78v3.74h-.78v-3.74Z"/>
      <path class="cls-1" d="m31.4,41.49c-.27,0-.48-.07-.62-.21s-.21-.34-.21-.6v-2.29h-.58v-.64h.32c.13,0,.22-.03.27-.09s.08-.15.08-.28v-.66h.71v1.02h.78v.64h-.78v2.46h.73v.64h-.68Z"/>
      <path class="cls-1" d="m33.53,37.08c-.16,0-.28-.04-.36-.11-.07-.08-.11-.18-.11-.3v-.12c0-.12.04-.22.11-.29.07-.08.19-.12.36-.12s.28.04.35.12c.07.08.11.17.11.29v.12c0,.12-.04.22-.11.3-.07.08-.19.11-.35.11Zm-.4.67h.78v3.74h-.78v-3.74Z"/>
      <path class="cls-1" d="m36.65,41.58c-.26,0-.5-.04-.71-.14-.21-.09-.4-.22-.54-.39-.15-.17-.26-.38-.35-.62-.08-.24-.12-.51-.12-.81s.04-.57.12-.81c.08-.24.2-.45.35-.62.15-.17.33-.3.54-.39.21-.09.45-.14.71-.14s.5.04.71.14c.21.09.39.22.54.39.15.17.26.38.35.62.08.24.12.51.12.81s-.04.57-.12.81c-.08.24-.2.45-.35.62-.15.17-.33.3-.54.39-.21.09-.45.14-.71.14Zm0-.65c.27,0,.48-.08.65-.25.16-.17.25-.41.25-.74v-.63c0-.33-.08-.58-.25-.74-.16-.17-.38-.25-.65-.25s-.48.08-.65.25c-.16.16-.24.41-.24.74v.63c0,.33.08.58.24.74.16.16.38.25.65.25Z"/>
      <path class="cls-1" d="m39.38,41.49v-3.74h.78v.62h.04c.08-.2.21-.37.37-.5.17-.13.39-.2.68-.2.38,0,.68.13.9.38.21.25.32.61.32,1.08v2.38h-.78v-2.28c0-.58-.24-.88-.71-.88-.1,0-.2.01-.3.04-.1.03-.19.07-.26.12-.08.05-.14.12-.18.2-.05.08-.07.18-.07.29v2.51h-.78Z"/>
      <path class="cls-1" d="m47.46,37.18v4.31h-.81v-4.31h-1.5v-.72h3.81v.72h-1.5Z"/>
      <path class="cls-1" d="m50.84,41.58c-.27,0-.51-.04-.72-.14-.21-.09-.39-.22-.54-.39-.15-.17-.26-.38-.34-.62-.08-.24-.12-.51-.12-.81s.04-.57.12-.81c.08-.24.19-.45.34-.62.15-.17.33-.3.54-.39.21-.09.45-.14.72-.14s.52.05.72.14c.21.1.38.23.52.4.14.17.24.37.31.59.07.23.1.47.1.73v.3h-2.57v.12c0,.29.09.52.26.71s.41.28.73.28c.23,0,.42-.05.58-.15.16-.1.29-.24.4-.41l.46.46c-.14.23-.34.42-.6.55-.26.14-.57.21-.92.21Zm0-3.3c-.13,0-.26.02-.37.07s-.21.12-.29.2c-.08.09-.14.19-.18.31-.04.12-.06.25-.06.4v.05h1.74v-.07c0-.29-.07-.52-.22-.7-.15-.17-.35-.26-.61-.26Z"/>
      <path class="cls-1" d="m54.95,41.58c-.27,0-.51-.04-.72-.14-.21-.09-.39-.22-.53-.39-.14-.17-.25-.38-.33-.62-.08-.24-.12-.51-.12-.81s.04-.57.12-.81c.08-.24.19-.45.33-.62.14-.17.32-.3.53-.39.21-.09.45-.14.72-.14.37,0,.68.08.92.25.24.17.42.39.53.67l-.65.3c-.05-.17-.15-.31-.28-.41s-.31-.15-.52-.15c-.29,0-.51.09-.65.27-.15.18-.22.41-.22.7v.67c0,.29.07.52.22.7.15.18.36.27.65.27.23,0,.41-.06.55-.17.14-.11.25-.26.33-.45l.6.32c-.12.31-.31.54-.56.71-.25.17-.55.25-.91.25Z"/>
      <path class="cls-1" d="m57.32,36.16h.78v2.2h.04c.08-.2.21-.37.37-.5.17-.13.39-.2.68-.2.38,0,.68.13.9.38.21.25.32.61.32,1.08v2.38h-.78v-2.28c0-.58-.24-.87-.71-.87-.1,0-.2.01-.3.04-.1.03-.19.07-.26.12-.08.05-.14.12-.18.2-.05.08-.07.18-.07.28v2.51h-.78v-5.33Z"/>
      <path class="cls-1" d="m61.64,41.49v-3.74h.78v.62h.04c.08-.2.21-.37.37-.5.17-.13.39-.2.68-.2.38,0,.68.13.9.38.21.25.32.61.32,1.08v2.38h-.78v-2.28c0-.58-.24-.88-.71-.88-.1,0-.2.01-.3.04-.1.03-.19.07-.26.12-.08.05-.14.12-.18.2-.05.08-.07.18-.07.29v2.51h-.78Z"/>
      <path class="cls-1" d="m67.42,41.58c-.26,0-.5-.04-.71-.14-.21-.09-.4-.22-.54-.39-.15-.17-.26-.38-.35-.62-.08-.24-.12-.51-.12-.81s.04-.57.12-.81c.08-.24.2-.45.35-.62.15-.17.33-.3.54-.39.21-.09.45-.14.71-.14s.5.04.71.14c.21.09.39.22.54.39.15.17.26.38.35.62.08.24.12.51.12.81s-.04.57-.12.81c-.08.24-.2.45-.35.62-.15.17-.33.3-.54.39-.21.09-.45.14-.71.14Zm0-.65c.27,0,.48-.08.65-.25.16-.17.25-.41.25-.74v-.63c0-.33-.08-.58-.25-.74-.16-.17-.38-.25-.65-.25s-.48.08-.65.25c-.16.16-.24.41-.24.74v.63c0,.33.08.58.24.74.16.16.38.25.65.25Z"/>
      <path class="cls-1" d="m70.96,41.49c-.27,0-.47-.07-.6-.21-.13-.14-.2-.33-.2-.57v-4.55h.78v4.69h.52v.64h-.5Z"/>
      <path class="cls-1" d="m73.82,41.58c-.26,0-.5-.04-.71-.14-.21-.09-.4-.22-.54-.39-.15-.17-.26-.38-.35-.62-.08-.24-.12-.51-.12-.81s.04-.57.12-.81c.08-.24.2-.45.35-.62.15-.17.33-.3.54-.39.21-.09.45-.14.71-.14s.5.04.71.14c.21.09.39.22.54.39.15.17.26.38.35.62.08.24.12.51.12.81s-.04.57-.12.81c-.08.24-.2.45-.35.62-.15.17-.33.3-.54.39-.21.09-.45.14-.71.14Zm0-.65c.27,0,.48-.08.65-.25.16-.17.25-.41.25-.74v-.63c0-.33-.08-.58-.25-.74-.16-.17-.38-.25-.65-.25s-.48.08-.65.25c-.16.16-.24.41-.24.74v.63c0,.33.08.58.24.74.16.16.38.25.65.25Z"/>
      <path class="cls-1" d="m79.84,41.84c0,.39-.15.68-.45.88-.3.2-.78.29-1.45.29-.31,0-.57-.02-.78-.06-.21-.04-.39-.1-.53-.18-.14-.08-.24-.17-.3-.28s-.09-.24-.09-.38c0-.21.06-.37.17-.48s.27-.19.47-.24v-.08c-.28-.09-.42-.28-.42-.58,0-.19.06-.34.19-.44.13-.1.29-.18.47-.22v-.03c-.22-.11-.39-.25-.51-.44s-.18-.41-.18-.67c0-.38.13-.69.39-.93s.63-.35,1.11-.35c.26,0,.49.04.68.12v-.1c0-.17.04-.3.12-.39.08-.09.2-.14.37-.14h.58v.63h-.76v.15c.17.11.3.25.39.43.09.18.14.37.14.59,0,.38-.13.69-.39.92-.26.23-.63.35-1.11.35-.18,0-.35-.02-.49-.06-.1.03-.18.08-.25.14-.07.06-.11.14-.11.23,0,.1.05.17.14.22.09.04.22.07.39.07h.92c.46,0,.79.09,1,.28.21.19.31.44.31.76Zm-.73.09c0-.13-.05-.23-.15-.31-.1-.08-.28-.12-.54-.12h-1.27c-.17.1-.26.24-.26.43,0,.15.06.28.18.37.12.09.33.14.62.14h.49c.61,0,.91-.17.91-.52Zm-1.17-2.29c.23,0,.41-.05.54-.15.13-.1.19-.26.19-.48v-.14c0-.22-.06-.38-.19-.48-.13-.1-.31-.16-.54-.16s-.41.05-.54.16c-.13.1-.19.26-.19.48v.14c0,.22.06.38.19.48.13.1.31.15.54.15Z"/>
      <path class="cls-1" d="m82.89,37.75h.76l-1.58,4.49c-.04.12-.09.23-.15.32s-.12.16-.19.22c-.07.05-.16.1-.27.12-.11.03-.23.04-.37.04h-.45v-.64h.63l.22-.63-1.36-3.91h.78l.75,2.2.22.81h.04l.24-.81.75-2.2Z"/>
      <path class="cls-1" d="m87.47,41.58c-.35,0-.65-.06-.89-.19-.24-.12-.45-.3-.63-.52l.5-.46c.14.17.29.3.46.39s.37.14.59.14.4-.04.51-.13.17-.21.17-.37c0-.12-.04-.22-.12-.31s-.22-.14-.41-.16l-.35-.04c-.38-.05-.69-.16-.9-.33-.22-.17-.33-.44-.33-.78,0-.18.03-.34.1-.49.07-.14.16-.26.28-.36s.27-.17.44-.23.36-.08.57-.08c.34,0,.61.05.82.16.21.11.4.25.57.44l-.48.46c-.1-.11-.22-.21-.38-.3-.16-.08-.33-.13-.54-.13-.22,0-.38.04-.48.13-.1.09-.15.2-.15.34s.05.25.14.32c.09.07.24.12.44.16l.35.04c.41.06.71.18.9.36.19.18.28.42.28.72,0,.18-.04.35-.1.49-.07.15-.17.27-.3.38s-.29.19-.47.25c-.18.06-.39.09-.61.09Z"/>
      <path class="cls-1" d="m90.38,37.08c-.16,0-.28-.04-.36-.11-.07-.08-.11-.18-.11-.3v-.12c0-.12.04-.22.11-.29.07-.08.19-.12.36-.12s.28.04.35.12c.07.08.11.17.11.29v.12c0,.12-.04.22-.11.3-.07.08-.19.11-.35.11Zm-.4.67h.78v3.74h-.78v-3.74Z"/>
      <path class="cls-1" d="m92.03,41.49v-3.74h.78v.62h.04c.08-.2.21-.37.37-.5.17-.13.39-.2.68-.2.38,0,.68.13.9.38.21.25.32.61.32,1.08v2.38h-.78v-2.28c0-.58-.24-.88-.71-.88-.1,0-.2.01-.3.04-.1.03-.19.07-.26.12-.08.05-.14.12-.18.2-.05.08-.07.18-.07.29v2.51h-.78Z"/>
      <path class="cls-1" d="m97.8,41.58c-.27,0-.51-.04-.72-.14-.21-.09-.39-.22-.53-.39-.14-.17-.25-.38-.33-.62-.08-.24-.12-.51-.12-.81s.04-.57.12-.81c.08-.24.19-.45.33-.62.14-.17.32-.3.53-.39.21-.09.45-.14.72-.14.37,0,.68.08.92.25.24.17.42.39.53.67l-.65.3c-.05-.17-.15-.31-.28-.41s-.31-.15-.52-.15c-.29,0-.51.09-.65.27-.15.18-.22.41-.22.7v.67c0,.29.07.52.22.7.15.18.36.27.65.27.23,0,.41-.06.55-.17.14-.11.25-.26.33-.45l.6.32c-.12.31-.31.54-.56.71-.25.17-.55.25-.91.25Z"/>
      <path class="cls-1" d="m101.59,41.58c-.27,0-.51-.04-.72-.14-.21-.09-.39-.22-.54-.39-.15-.17-.26-.38-.34-.62-.08-.24-.12-.51-.12-.81s.04-.57.12-.81c.08-.24.19-.45.34-.62.15-.17.33-.3.54-.39.21-.09.45-.14.72-.14s.52.05.72.14c.21.1.38.23.52.4.14.17.24.37.31.59.07.23.1.47.1.73v.3h-2.57v.12c0,.29.09.52.26.71s.41.28.73.28c.23,0,.42-.05.58-.15.16-.1.29-.24.4-.41l.46.46c-.14.23-.34.42-.6.55-.26.14-.57.21-.92.21Zm0-3.3c-.13,0-.26.02-.37.07s-.21.12-.29.2c-.08.09-.14.19-.18.31-.04.12-.06.25-.06.4v.05h1.74v-.07c0-.29-.07-.52-.22-.7-.15-.17-.35-.26-.61-.26Z"/>
      <path class="cls-1" d="m106.18,41.49v-.68h1.41v-3.76h-.06l-1.17,1.25-.5-.45,1.28-1.39h1.24v4.35h1.22v.68h-3.43Z"/>
      <path class="cls-1" d="m112.17,41.58c-.29,0-.55-.04-.77-.11-.22-.07-.41-.18-.56-.31-.15-.13-.27-.28-.35-.46-.08-.18-.12-.37-.12-.58,0-.34.09-.61.28-.81.18-.2.43-.35.73-.43v-.06c-.26-.09-.47-.24-.62-.43-.16-.2-.23-.44-.23-.73,0-.19.04-.37.11-.53.07-.16.18-.29.32-.41.14-.11.31-.2.52-.26.21-.06.44-.09.7-.09s.49.03.7.09.38.15.52.26c.14.11.25.25.32.41.07.16.11.33.11.53,0,.29-.08.53-.23.73-.16.2-.36.34-.62.43v.06c.3.08.55.22.73.43.19.2.28.47.28.81,0,.21-.04.4-.12.58s-.19.33-.35.46-.34.23-.56.31-.48.11-.77.11Zm0-.65c.3,0,.54-.07.7-.21.17-.14.25-.33.25-.58v-.14c0-.25-.08-.44-.25-.58-.17-.14-.4-.21-.7-.21s-.54.07-.7.21-.25.33-.25.58v.14c0,.25.08.44.25.58.17.14.4.21.7.21Zm0-2.35c.28,0,.49-.06.64-.18.15-.12.22-.29.22-.53v-.12c0-.23-.07-.41-.22-.53-.15-.12-.36-.18-.64-.18s-.49.06-.64.18c-.15.12-.22.29-.22.53v.12c0,.23.07.41.22.53.15.12.36.18.64.18Z"/>
      <path class="cls-1" d="m116.64,41.58c-.29,0-.55-.04-.77-.11-.22-.07-.41-.18-.56-.31-.15-.13-.27-.28-.35-.46-.08-.18-.12-.37-.12-.58,0-.34.09-.61.28-.81.18-.2.43-.35.73-.43v-.06c-.26-.09-.47-.24-.62-.43-.16-.2-.23-.44-.23-.73,0-.19.04-.37.11-.53.07-.16.18-.29.32-.41.14-.11.31-.2.52-.26.21-.06.44-.09.7-.09s.49.03.7.09.38.15.52.26c.14.11.25.25.32.41.07.16.11.33.11.53,0,.29-.08.53-.23.73-.16.2-.36.34-.62.43v.06c.3.08.55.22.73.43.19.2.28.47.28.81,0,.21-.04.4-.12.58s-.19.33-.35.46-.34.23-.56.31-.48.11-.77.11Zm0-.65c.3,0,.54-.07.7-.21.17-.14.25-.33.25-.58v-.14c0-.25-.08-.44-.25-.58-.17-.14-.4-.21-.7-.21s-.54.07-.7.21-.25.33-.25.58v.14c0,.25.08.44.25.58.17.14.4.21.7.21Zm0-2.35c.28,0,.49-.06.64-.18.15-.12.22-.29.22-.53v-.12c0-.23-.07-.41-.22-.53-.15-.12-.36-.18-.64-.18s-.49.06-.64.18c-.15.12-.22.29-.22.53v.12c0,.23.07.41.22.53.15.12.36.18.64.18Z"/>
      <path class="cls-1" d="m121.11,41.58c-.28,0-.53-.04-.75-.14-.22-.09-.4-.22-.55-.39-.15-.17-.27-.38-.35-.62s-.12-.51-.12-.81c0-.36.06-.71.17-1.03s.25-.62.42-.89.37-.51.58-.72c.21-.21.42-.38.63-.52h1.08c-.28.21-.54.41-.76.6-.23.19-.42.39-.59.59-.17.2-.31.42-.42.64-.11.23-.2.47-.26.74h.05c.05-.09.11-.18.18-.27.07-.09.15-.17.25-.23.09-.07.2-.12.32-.16.12-.04.26-.06.42-.06.21,0,.41.04.59.11.18.07.34.18.47.31s.24.3.31.49c.07.19.11.41.11.64,0,.25-.04.49-.13.7-.08.21-.2.39-.36.54-.15.15-.34.27-.56.35-.22.08-.46.13-.72.13Zm0-.66c.29,0,.52-.08.68-.23.16-.16.24-.39.24-.69v-.1c0-.3-.08-.53-.24-.69s-.39-.23-.68-.23-.52.08-.68.23-.24.39-.24.69v.1c0,.3.08.53.24.69.16.16.39.23.68.23Z"/>
    </g>
  </g>
</svg>